<svg width="51" height="51" viewBox="0 0 51 51" fill="none" xmlns="http://www.w3.org/2000/svg">
<path d="M37.8868 22.9719H36.8799V22.92H25.6299V27.92H32.6943C31.6636 30.8306 28.8943 32.92 25.6299 32.92C21.488 32.92 18.1299 29.5619 18.1299 25.42C18.1299 21.2781 21.488 17.92 25.6299 17.92C27.5418 17.92 29.2811 18.6412 30.6055 19.8194L34.1411 16.2837C31.9086 14.2031 28.9224 12.92 25.6299 12.92C18.7268 12.92 13.1299 18.5169 13.1299 25.42C13.1299 32.3231 18.7268 37.92 25.6299 37.92C32.533 37.92 38.1299 32.3231 38.1299 25.42C38.1299 24.5819 38.0436 23.7637 37.8868 22.9719Z" fill="#FFC107"/>
<path d="M14.571 19.6019L18.6779 22.6137C19.7892 19.8625 22.4804 17.92 25.6298 17.92C27.5417 17.92 29.281 18.6412 30.6054 19.8194L34.141 16.2837C31.9085 14.2031 28.9223 12.92 25.6298 12.92C20.8285 12.92 16.6648 15.6306 14.571 19.6019Z" fill="#FF3D00"/>
<path d="M25.6298 37.92C28.8586 37.92 31.7923 36.6844 34.0105 34.675L30.1417 31.4012C28.8867 32.3519 27.3267 32.92 25.6298 32.92C22.3786 32.92 19.618 30.8469 18.578 27.9537L14.5017 31.0944C16.5705 35.1425 20.7717 37.92 25.6298 37.92Z" fill="#4CAF50"/>
<path d="M37.8868 22.9719H36.8799V22.92H25.6299V27.92H32.6943C32.1993 29.3181 31.2999 30.5237 30.1399 31.4019C30.1405 31.4012 30.1411 31.4012 30.1418 31.4006L34.0105 34.6744C33.7368 34.9231 38.1299 31.67 38.1299 25.42C38.1299 24.5819 38.0436 23.7637 37.8868 22.9719Z" fill="#1976D2"/>
</svg>
